<svg id="Group_5" data-name="Group 5" xmlns="http://www.w3.org/2000/svg" width="53" height="53" viewBox="0 0 53 53">
  <path id="Fill_1" data-name="Fill 1" d="M11.385,40a.9.9,0,0,1-.874-1.1l3.647-16.184a.9.9,0,1,1,1.748.4L13.218,34.936,25.375,17.97H12.989a.9.9,0,0,1-.918-.882.921.921,0,0,1,.022-.222L14.782,5.049,2.647,22.029h8.738a.9.9,0,0,1,0,1.808H.9A.905.905,0,0,1,.17,22.405L15.907.375a.891.891,0,0,1,1.251-.2.91.91,0,0,1,.348.936l-3.4,15.054H27.1a.905.905,0,0,1,.726,1.433L12.111,39.624a.891.891,0,0,1-.726.376" transform="translate(13 6)" fill="#1c9bd6"/>
  <path id="Fill_3" data-name="Fill 3" d="M26.5,53A26.5,26.5,0,1,1,53,26.5,26.53,26.53,0,0,1,26.5,53Zm0-51.759A25.259,25.259,0,1,0,51.759,26.5,25.287,25.287,0,0,0,26.5,1.241Z" fill="#1d4f91"/>
</svg>
