<?xml version="1.0" encoding="UTF-8"?>
<svg width="200px" height="44px" viewBox="0 0 127 28" version="1.1" xmlns="http://www.w3.org/2000/svg" xmlns:xlink="http://www.w3.org/1999/xlink">
    <title>LogoLockup2ColorRGB</title>
    <g id="Homepage" stroke="none" stroke-width="1" fill="none" fill-rule="evenodd">
        <g id="STACK-Meet-the-Team-Mobile-(375x360)" transform="translate(-19.000000, -44.000000)" fill-rule="nonzero">
            <g id="Nav" transform="translate(-18.000000, 44.000000)">
                <g id="LogoLockup2ColorRGB" transform="translate(37.500000, 0.000000)">
                    <path d="M44.1038787,14.9386818 C45.3236737,15.3914081 46.4400357,15.616119 47.4529648,15.616119 C48.5193937,15.616119 49.3646901,15.4244538 49.9924209,15.0444281 C50.6201516,14.6644024 50.9340169,14.2116762 50.9340169,13.6862493 C50.9340169,13.256655 50.748551,12.9096751 50.3811859,12.6387002 C50.0102541,12.3677254 49.5430227,12.1661465 48.9759251,12.0306591 C48.4088275,11.8951717 47.6633972,11.7497705 46.7325011,11.5911511 C45.4948729,11.399486 44.3606777,11.1549477 43.3299153,10.8542317 C42.2991529,10.5535157 41.3611235,10.0280889 40.5229603,9.28456031 C39.6812305,8.53772719 39.2603656,7.52983294 39.2603656,6.26087755 C39.2603656,4.38718561 40.0022292,3.04222508 41.489523,2.22599596 C42.9768168,1.40976684 44.7244761,1 46.7325011,1 C48.2768613,1 49.6214891,1.19496971 50.7663843,1.58490912 C51.9077129,1.97484854 53.0454748,2.55645309 54.1796701,3.33302735 L51.9112795,6.19148155 C51.0695497,5.63631357 50.1921534,5.20011015 49.2826572,4.88287131 C48.3731609,4.56563246 47.470798,4.40701303 46.5755684,4.40701303 C45.7837717,4.40701303 45.0454748,4.53919589 44.3606777,4.80025702 C43.6723139,5.06131816 43.3299153,5.50413071 43.3299153,6.12208555 C43.3299153,6.50211125 43.5046812,6.80943639 43.8577798,7.04075638 C44.2108783,7.27207637 44.5960767,7.43730494 45.0169416,7.53974665 C45.4378065,7.64218836 46.119037,7.79089407 47.0641997,7.97925464 L47.9915292,8.1444832 C49.4181899,8.39893519 50.5987517,8.67982376 51.5332144,8.99045346 C52.4676772,9.30108317 53.2808738,9.81990086 53.9692376,10.5502111 C54.6576014,11.2805214 55,12.2950248 55,13.5970259 C55,15.3583624 54.3259028,16.7000184 52.9777084,17.6186892 C51.629514,18.5406646 49.8033883,19 47.5028979,19 C44.1359786,19 41.3004904,18.0945475 39,16.2869469 L41.1649576,13.4053607 C41.9068212,13.9770516 42.8840838,14.4892601 44.1038787,14.9386818 Z" id="Path" fill="#1D4F91"></path>
                    <polygon id="Path" fill="#1D4F91" points="63.9196492 4.37371819 63.9196492 19 60.1068974 19 60.1068974 4.37371819 55 4.37371819 55 1 69 1 69 4.37371819"></polygon>
                    <path d="M77.0017256,0 L87,18 L82.6859362,18 L81.2398619,15.3258468 L72.7359793,15.3258468 L71.3382226,18 L67,18 L77.0017256,0 Z M79.3451251,12.10162 L77.0017256,7.54197349 L74.6824849,12.10162 L79.3451251,12.10162 Z" id="Shape" fill="#1D4F91"></path>
                    <path d="M100.466567,17.6928296 C98.9671274,18.5642765 97.3365708,19 95.5715353,19 C93.8401195,19 92.2398207,18.593985 90.7740007,17.7885568 C89.3081808,16.9798276 88.1449384,15.887218 87.2876354,14.5074271 C86.4303325,13.1276362 86,11.6224097 86,9.98844673 C86,8.37098845 86.4303325,6.87236384 87.2876354,5.4925729 C88.1449384,4.11278195 89.3081808,3.02017238 90.7740007,2.21144324 C92.2398207,1.4027141 93.8367576,1 95.5715353,1 C97.3197609,1 98.9469555,1.43242252 100.453119,2.29726756 C101.959283,3.1621126 103.139335,4.31413901 104,5.75664772 L100.429585,7.11333211 C99.861412,6.32110765 99.1453119,5.6708234 98.281285,5.16247937 C97.4138962,4.65413534 96.5128876,4.39996332 95.5748973,4.39996332 C94.5394098,4.39996332 93.5846096,4.65743627 92.7071349,5.17238217 C91.833022,5.68732808 91.1404557,6.37392261 90.6294359,7.22886485 C90.1184161,8.08380708 89.8629062,9.00476802 89.8629062,9.98844673 C89.8629062,10.9721254 90.1184161,11.8963873 90.6294359,12.7579314 C91.1404557,13.6227765 91.833022,14.3126719 92.7071349,14.8276178 C93.5812477,15.3425637 94.5360478,15.6000367 95.5748973,15.6000367 C96.5128876,15.6000367 97.4172581,15.3425637 98.281285,14.8276178 C99.1486739,14.3126719 99.864774,13.6491839 100.429585,12.8437557 L104,14.2004401 C103.139335,15.6561526 101.962645,16.8213827 100.466567,17.6928296 Z" id="Path" fill="#1D4F91"></path>
                    <polygon id="Path" fill="#1D4F91" points="110.876832 19 107 19 107 1 110.876832 1 110.876832 8.50968477 117.872797 1 122.684009 1 115.293905 8.63273832 123 19 118.236356 19 112.616479 11.3433346 110.873434 13.1652108 110.873434 19"></polygon>
                    <polygon id="Path" fill="#1D4F91" points="28 5.13434903 28 1 4.05713594 1 0 1 0 5.13434903 0 16.865651 0 21 4.05713594 21 28 21 28 16.865651 4.05713594 16.865651 4.05713594 5.13434903"></polygon>
                    <polygon id="Path" fill="#1C9BD6" points="9 12.134349 9 8 32.9423729 8 37 8 37 12.134349 37 23.865651 37 28 32.9423729 28 9 28 9 23.865651 32.9423729 23.865651 32.9423729 12.134349"></polygon>
                    <g id="Group" transform="translate(39.000000, 22.000000)" fill="#1D4F91">
                        <polygon id="Path" points="1.59951417 0.317647059 1.59951417 5.87647059 0.278906883 5.87647059 0.278906883 0.317647059"></polygon>
                        <polygon id="Path" points="8.35040486 0.317647059 8.35040486 5.87647059 7.33558704 5.87647059 4.79182186 2.82705882 4.79182186 5.87647059 3.47121457 5.87647059 3.47121457 0.317647059 4.47931174 0.317647059 7.03987854 3.44823529 7.03987854 0.317647059"></polygon>
                        <polygon id="Path" points="11.5393522 1.53529412 11.5393522 2.71058824 13.8176518 2.71058824 13.8176518 3.91058824 11.5393522 3.91058824 11.5393522 5.87294118 10.2187449 5.87294118 10.2187449 0.317647059 14.1839271 0.317647059 14.1839271 1.53529412 11.5393522 1.53529412"></polygon>
                        <path d="M19.0362348,5.87647059 L18.0281377,4.26705882 L18.021417,4.26705882 L17.0234008,4.26705882 L17.0234008,5.87647059 L15.7027935,5.87647059 L15.7027935,0.317647059 L18.021417,0.317647059 C19.3420243,0.317647059 20.2224291,1.06941176 20.2224291,2.26941176 C20.2224291,2.99647059 19.8863968,3.58588235 19.3252227,3.92823529 L20.5752632,5.87294118 L19.0362348,5.87294118 L19.0362348,5.87647059 Z M17.0234008,3.02117647 L17.9978947,3.02117647 C18.5053036,3.02117647 18.9018219,2.72823529 18.9018219,2.26941176 C18.9018219,1.82117647 18.5053036,1.53529412 17.9978947,1.53529412 L17.0234008,1.53529412 L17.0234008,3.02117647 Z" id="Shape"></path>
                        <path d="M25.7367206,4.92 L23.488664,4.92 L23.1391903,5.87647059 L21.7345749,5.87647059 L23.9893522,0.317647059 L25.252834,0.317647059 L27.5008907,5.87647059 L26.0962753,5.87647059 L25.7367206,4.92 Z M25.3065992,3.76588235 L24.6110121,1.89529412 L23.9154251,3.76588235 L25.3065992,3.76588235 Z" id="Shape"></path>
                        <path d="M33.085749,2.04 L31.7584211,2.04 C31.6878543,1.62352941 31.4459109,1.33764706 30.8847368,1.33764706 C30.4176518,1.33764706 30.1118623,1.52470588 30.1118623,1.88470588 C30.1118623,2.20235294 30.3302834,2.34352941 30.7503239,2.43176471 L31.4929555,2.59411765 C32.4674494,2.80588235 33.0924696,3.22235294 33.0924696,4.17882353 C33.0924696,5.29058824 32.2187854,5.97882353 30.8914575,5.97882353 C29.6985425,5.97882353 28.6198785,5.38235294 28.4955466,4.00941176 L29.8228745,4.00941176 C29.9102429,4.5 30.3067611,4.81058824 30.9317814,4.81058824 C31.3988664,4.81058824 31.6811336,4.62352941 31.6811336,4.31294118 C31.6811336,4.11529412 31.5803239,3.91058824 31.1199595,3.82235294 L30.2462753,3.62470588 C29.2012146,3.38823529 28.7106073,2.89058824 28.7106073,2.00470588 C28.7106073,0.892941176 29.5674899,0.208235294 30.8175304,0.208235294 C31.674413,0.211764706 32.9546964,0.547058824 33.085749,2.04 Z" id="Path"></path>
                        <polygon id="Path" points="39.0637652 1.54941176 37.3701619 1.54941176 37.3701619 5.87294118 36.0596356 5.87294118 36.0596356 1.54941176 34.3660324 1.54941176 34.3660324 0.314117647 39.0637652 0.314117647"></polygon>
                        <path d="M43.9227935,5.87647059 L42.9146964,4.26705882 L42.9079757,4.26705882 L41.9099595,4.26705882 L41.9099595,5.87647059 L40.5893522,5.87647059 L40.5893522,0.317647059 L42.9079757,0.317647059 C44.228583,0.317647059 45.1089879,1.06941176 45.1089879,2.26941176 C45.1089879,2.99647059 44.7729555,3.58588235 44.2117814,3.92823529 L45.4618219,5.87294118 L43.9227935,5.87294118 L43.9227935,5.87647059 Z M41.9099595,3.02117647 L42.8844534,3.02117647 C43.3918623,3.02117647 43.7883806,2.72823529 43.7883806,2.26941176 C43.7883806,1.82117647 43.3918623,1.53529412 42.8844534,1.53529412 L41.9099595,1.53529412 L41.9099595,3.02117647 Z" id="Shape"></path>
                        <path d="M51.6212955,3.28235294 C51.6212955,5.00823529 50.6703239,5.97882353 49.1480972,5.97882353 C47.6325911,5.97882353 46.6816194,5.00470588 46.6816194,3.28235294 L46.6816194,0.314117647 L48.0089474,0.314117647 L48.0089474,3.30705882 C48.0089474,4.15764706 48.4525101,4.68705882 49.1480972,4.68705882 C49.8436842,4.68705882 50.2939676,4.15411765 50.2939676,3.30705882 L50.2939676,0.314117647 L51.6212955,0.314117647 L51.6212955,3.28235294 Z" id="Path"></path>
                        <path d="M57.3506478,3.56823529 L58.7082186,3.56823529 C58.5368421,5.00823529 57.4917814,5.97882353 56.0468421,5.97882353 C54.4473279,5.97882353 53.2376113,4.76823529 53.2376113,3.09176471 C53.2376113,1.41529412 54.4473279,0.204705882 56.0468421,0.204705882 C57.4917814,0.204705882 58.5368421,1.17882353 58.7082186,2.61529412 L57.3506478,2.61529412 C57.2095142,1.92 56.7424291,1.49647059 56.0401215,1.49647059 C55.1731579,1.49647059 54.5716599,2.16705882 54.5716599,3.09176471 C54.5716599,4.01647059 55.1731579,4.68705882 56.0401215,4.68705882 C56.7390688,4.69058824 57.2095142,4.26352941 57.3506478,3.56823529 Z" id="Path"></path>
                        <polygon id="Path" points="64.4711741 1.54941176 62.7775709 1.54941176 62.7775709 5.87294118 61.4670445 5.87294118 61.4670445 1.54941176 59.7734413 1.54941176 59.7734413 0.314117647 64.4711741 0.314117647"></polygon>
                        <path d="M70.8457085,3.28235294 C70.8457085,5.00823529 69.8947368,5.97882353 68.3725101,5.97882353 C66.857004,5.97882353 65.9060324,5.00470588 65.9060324,3.28235294 L65.9060324,0.314117647 L67.2333603,0.314117647 L67.2333603,3.30705882 C67.2333603,4.15764706 67.6769231,4.68705882 68.3725101,4.68705882 C69.0680972,4.68705882 69.5183806,4.15411765 69.5183806,3.30705882 L69.5183806,0.314117647 L70.8457085,0.314117647 L70.8457085,3.28235294 Z" id="Path"></path>
                        <path d="M75.9702024,5.87647059 L74.9621053,4.26705882 L74.9553846,4.26705882 L73.9573684,4.26705882 L73.9573684,5.87647059 L72.6367611,5.87647059 L72.6367611,0.317647059 L74.9553846,0.317647059 C76.2726316,0.317647059 77.1563968,1.06941176 77.1563968,2.26941176 C77.1563968,2.99647059 76.8203644,3.58588235 76.2591903,3.92823529 L77.5092308,5.87294118 L75.9702024,5.87294118 L75.9702024,5.87647059 Z M73.9573684,3.02117647 L74.9318623,3.02117647 C75.4392713,3.02117647 75.8391498,2.72823529 75.8391498,2.26941176 C75.8391498,1.82117647 75.4426316,1.53529412 74.9318623,1.53529412 L73.9573684,1.53529412 L73.9573684,3.02117647 Z" id="Shape"></path>
                        <polygon id="Path" points="80.2512551 1.51764706 80.2512551 2.53058824 82.6068421 2.53058824 82.6068421 3.70941176 80.2512551 3.70941176 80.2512551 4.67294118 82.9428745 4.67294118 82.9428745 5.87294118 78.9340081 5.87294118 78.9340081 0.317647059 82.9462348 0.317647059 82.9462348 1.51764706 80.2512551 1.51764706"></polygon>
                    </g>
                    <path d="M124.792717,23.0029499 L124.792717,23.1681416 L124.490196,23.1681416 L124.490196,24 L124.302521,24 L124.302521,23.1681416 L124,23.1681416 L124,23.0029499 L124.792717,23.0029499 Z M125.817927,24 L125.781513,23.4129794 C125.778711,23.3362832 125.778711,23.2418879 125.77591,23.1356932 L125.764706,23.1356932 C125.739496,23.2241888 125.711485,23.3421829 125.683473,23.4336283 L125.512605,23.9852507 L125.316527,23.9852507 L125.145658,23.4159292 C125.128852,23.339233 125.10084,23.2212389 125.078431,23.1327434 L125.067227,23.1327434 C125.067227,23.2241888 125.064426,23.3185841 125.058824,23.4100295 L125.02521,23.9970501 L124.843137,23.9970501 L124.913165,23 L125.196078,23 L125.358543,23.4867257 C125.380952,23.5634218 125.397759,23.6371681 125.422969,23.740413 L125.42577,23.740413 C125.45098,23.6489676 125.470588,23.5634218 125.492997,23.4896755 L125.655462,23 L125.927171,23 L126,23.9970501 L125.817927,23.9970501 L125.817927,24 Z" id="Shape" fill="#1D4F91"></path>
                </g>
            </g>
        </g>
    </g>
</svg>